<svg id="svg" version="1.1" xmlns="http://www.w3.org/2000/svg" xmlns:xlink="http://www.w3.org/1999/xlink" width="400" height="533.3333333333334" viewBox="0, 0, 400,533.3333333333334"><g id="svgg"><path id="path0" d="M0.000 266.667 L 0.000 533.333 200.000 533.333 L 400.000 533.333 400.000 266.667 L 400.000 0.000 200.000 0.000 L 0.000 0.000 0.000 266.667 M267.901 237.649 C 273.276 238.582,274.949 240.774,275.682 247.842 C 275.890 249.844,276.274 252.981,276.536 254.815 C 276.797 256.648,277.183 259.593,277.394 261.358 C 277.605 263.123,277.896 265.179,278.042 265.926 C 278.391 267.712,278.407 282.421,278.064 285.309 C 277.053 293.815,276.689 295.056,273.791 299.877 C 271.923 302.983,269.227 308.296,268.892 309.532 C 268.712 310.197,268.347 311.178,268.082 311.711 C 267.641 312.597,267.633 312.707,267.997 312.973 C 268.551 313.378,268.512 313.515,267.531 314.600 C 267.056 315.127,266.667 315.740,266.667 315.963 C 266.667 316.186,266.269 317.714,265.784 319.357 C 264.922 322.272,264.233 323.931,260.895 331.121 C 259.838 333.398,252.741 339.757,251.263 339.751 C 244.295 339.726,238.650 333.209,236.632 322.859 C 236.358 321.452,236.041 320.517,235.756 320.273 C 235.207 319.803,235.174 319.259,235.693 319.259 C 236.140 319.259,236.043 311.098,235.573 309.259 C 235.434 308.716,235.318 307.903,235.315 307.453 C 235.311 307.003,235.175 306.392,235.013 306.095 C 234.850 305.798,234.743 305.329,234.776 305.053 C 235.006 303.126,233.419 298.909,231.626 296.682 C 230.868 295.739,230.136 294.779,230.000 294.549 C 229.727 294.084,227.394 291.384,226.406 290.389 C 226.059 290.039,225.356 289.189,224.844 288.499 C 224.332 287.809,223.345 286.809,222.651 286.277 C 221.956 285.744,220.826 284.801,220.138 284.180 C 219.451 283.560,218.246 282.537,217.460 281.907 L 216.031 280.762 214.077 280.767 L 212.123 280.771 209.976 282.488 C 208.796 283.432,207.174 284.604,206.372 285.091 L 204.914 285.976 203.777 285.602 C 202.686 285.243,202.605 285.251,201.752 285.797 C 201.264 286.111,195.698 289.363,189.383 293.025 C 183.068 296.687,172.068 303.072,164.938 307.214 C 104.713 342.199,99.472 345.208,99.015 345.063 C 97.839 344.689,95.802 341.172,95.802 339.513 C 95.802 338.510,96.152 338.226,96.706 338.780 C 96.891 338.965,97.653 338.647,99.286 337.706 C 100.562 336.971,112.827 329.921,126.543 322.040 C 140.259 314.158,156.148 305.027,161.852 301.749 C 167.556 298.470,178.193 292.375,185.490 288.203 L 198.759 280.617 199.360 279.376 C 200.235 277.573,200.694 277.230,206.009 274.416 C 208.358 273.173,208.348 273.187,208.998 270.494 C 209.744 267.406,210.676 265.758,213.325 262.843 C 216.547 259.297,220.202 255.937,223.210 253.756 C 224.636 252.722,226.354 251.454,227.028 250.938 C 231.048 247.861,234.140 246.147,240.494 243.468 C 241.512 243.039,242.790 242.435,243.333 242.126 C 243.877 241.817,245.154 241.319,246.173 241.020 C 247.191 240.720,248.580 240.264,249.259 240.006 C 249.938 239.748,251.994 239.192,253.827 238.770 C 255.660 238.347,257.605 237.898,258.148 237.771 C 260.540 237.211,265.056 237.155,267.901 237.649 M258.876 243.958 C 256.493 244.154,253.779 244.678,251.014 245.477 L 249.311 245.968 249.926 246.379 C 250.264 246.605,251.542 247.659,252.766 248.722 C 253.990 249.784,255.536 250.905,256.200 251.214 C 257.593 251.862,260.142 253.457,260.369 253.824 C 260.760 254.457,260.910 253.817,261.197 250.309 C 261.367 248.238,261.571 245.904,261.652 245.123 C 261.769 243.996,261.728 243.711,261.455 243.739 C 261.266 243.758,260.105 243.857,258.876 243.958 M262.848 244.012 C 262.667 244.573,261.943 252.890,262.065 253.012 C 262.276 253.222,264.939 250.536,265.546 249.501 C 266.243 248.312,266.810 245.790,266.584 244.889 C 266.335 243.896,263.128 243.144,262.848 244.012 M247.830 247.593 C 247.285 248.873,247.242 249.074,246.689 252.840 C 246.181 256.306,245.533 264.627,245.753 264.848 C 246.239 265.334,260.000 255.893,260.000 255.074 C 260.000 254.738,258.373 253.608,256.277 252.488 C 255.183 251.903,253.278 250.549,252.043 249.478 C 248.401 246.317,248.376 246.307,247.830 247.593 M273.870 247.610 C 273.329 249.416,271.034 252.586,267.806 255.988 C 267.000 256.836,266.455 257.531,266.593 257.531 C 266.856 257.531,267.901 260.556,267.901 261.317 C 267.901 262.773,268.449 263.841,269.585 264.599 C 272.610 266.619,275.862 268.395,276.535 268.395 C 276.897 268.395,276.844 266.833,276.412 264.815 C 276.209 263.864,275.875 261.266,275.670 259.040 C 275.464 256.815,275.242 254.907,275.176 254.801 C 275.111 254.694,274.882 252.848,274.668 250.699 C 274.226 246.253,274.249 246.344,273.870 247.610 M244.938 247.768 C 244.056 248.082,242.333 248.909,241.111 249.606 C 239.889 250.303,237.637 251.485,236.107 252.232 L 233.326 253.591 233.681 254.265 C 234.202 255.254,236.450 257.334,238.148 258.398 C 238.963 258.909,240.662 260.311,241.923 261.515 C 244.831 264.290,244.938 264.264,244.939 260.772 C 244.939 258.033,246.215 248.903,246.780 247.593 C 247.012 247.055,246.916 247.065,244.938 247.768 M232.164 254.522 C 231.996 254.629,231.581 255.933,231.240 257.420 C 230.899 258.907,230.464 260.568,230.273 261.111 C 230.082 261.654,229.800 263.099,229.647 264.321 C 229.494 265.543,229.265 267.321,229.137 268.272 C 229.009 269.222,228.901 270.350,228.897 270.778 L 228.889 271.557 232.160 270.507 C 233.960 269.930,236.210 269.094,237.160 268.651 C 238.111 268.207,239.389 267.689,240.000 267.499 C 240.611 267.309,241.993 266.736,243.070 266.224 L 245.029 265.294 243.441 264.145 C 242.567 263.513,241.241 262.365,240.494 261.595 C 239.747 260.824,238.209 259.574,237.075 258.817 C 235.242 257.592,232.840 255.169,232.840 254.545 C 232.840 254.272,232.573 254.263,232.164 254.522 M228.882 256.438 C 226.289 257.987,220.247 263.247,220.247 263.956 C 220.247 264.326,224.023 268.215,226.173 270.059 L 228.025 271.647 228.306 268.848 C 228.741 264.524,229.104 262.401,230.026 258.803 C 231.038 254.856,231.149 255.084,228.882 256.438 M264.387 259.327 L 262.984 260.617 265.086 261.681 L 267.188 262.746 267.030 261.805 C 266.841 260.677,266.176 258.467,265.951 258.216 C 265.863 258.118,265.159 258.618,264.387 259.327 M261.469 261.866 C 261.163 262.191,258.879 263.821,256.393 265.488 C 253.908 267.155,251.897 268.586,251.925 268.669 C 252.267 269.688,264.638 277.531,265.902 277.531 C 266.348 277.531,267.013 273.395,267.274 269.012 C 267.355 267.654,267.481 266.033,267.555 265.409 L 267.690 264.275 265.957 263.246 C 265.004 262.680,263.730 262.004,263.125 261.745 L 262.025 261.273 261.469 261.866 M219.378 264.785 C 216.887 267.582,215.273 270.529,216.352 270.309 C 216.519 270.275,216.693 270.495,216.739 270.798 C 216.975 272.345,220.382 273.120,224.647 272.598 C 227.539 272.244,227.552 272.227,225.988 270.965 C 224.519 269.780,220.851 266.172,220.150 265.222 C 219.775 264.713,219.554 264.588,219.378 264.785 M268.178 269.321 C 268.012 271.596,267.782 273.846,267.667 274.321 C 267.551 274.796,267.394 275.865,267.316 276.696 L 267.175 278.206 270.192 279.319 C 273.231 280.440,276.417 281.196,276.739 280.874 C 276.948 280.666,277.105 271.064,276.918 269.989 C 276.807 269.353,276.625 269.193,275.739 268.948 C 275.163 268.790,273.380 267.878,271.777 266.922 C 270.175 265.967,268.777 265.185,268.672 265.185 C 268.566 265.185,268.344 267.046,268.178 269.321 M248.889 269.878 C 248.142 270.263,246.864 270.818,246.049 271.112 C 245.235 271.406,243.550 272.082,242.306 272.613 C 241.063 273.145,239.926 273.580,239.780 273.580 C 239.635 273.580,238.819 273.850,237.968 274.181 C 237.116 274.511,235.892 274.914,235.247 275.077 C 234.055 275.378,233.662 275.802,234.576 275.802 C 234.863 275.802,235.161 276.028,235.273 276.330 C 235.651 277.353,246.467 284.992,246.907 284.547 C 247.805 283.639,250.860 269.788,250.287 269.219 C 250.265 269.197,249.636 269.494,248.889 269.878 M251.272 270.185 C 251.193 270.502,251.010 271.804,250.865 273.078 C 250.512 276.199,249.815 279.293,248.769 282.385 C 247.698 285.554,247.651 285.206,249.256 285.994 C 250.001 286.359,252.417 287.700,254.626 288.975 C 256.835 290.249,259.116 291.532,259.695 291.826 L 260.748 292.359 260.986 291.673 C 261.117 291.296,261.414 290.654,261.645 290.247 C 261.876 289.840,262.311 289.038,262.612 288.466 C 262.912 287.894,263.379 287.061,263.648 286.614 C 264.071 285.914,264.471 284.614,265.691 279.971 C 266.059 278.573,266.041 278.549,263.889 277.552 C 261.253 276.331,257.083 273.852,255.192 272.383 C 254.374 271.746,253.426 271.034,253.086 270.800 C 252.747 270.565,252.232 270.202,251.943 269.991 C 251.450 269.633,251.408 269.645,251.272 270.185 M231.235 276.456 C 230.420 276.791,228.975 277.219,228.025 277.408 C 227.074 277.596,225.574 277.974,224.691 278.246 C 223.809 278.518,221.825 279.073,220.284 279.478 C 216.899 280.368,217.004 280.277,218.316 281.185 C 218.903 281.591,219.660 282.225,220.000 282.595 C 220.340 282.965,221.646 284.098,222.904 285.113 C 224.213 286.170,225.451 287.403,225.799 287.996 C 226.133 288.567,226.740 289.279,227.147 289.580 L 227.887 290.127 228.301 289.323 C 228.529 288.881,228.961 288.185,229.262 287.778 C 230.344 286.314,232.072 282.786,233.104 279.936 L 234.156 277.033 233.578 276.418 C 232.899 275.695,233.092 275.691,231.235 276.456 M234.107 279.962 C 233.196 282.601,231.065 286.807,229.595 288.867 C 228.484 290.425,228.427 290.912,229.236 291.952 C 230.343 293.377,234.437 297.416,235.937 298.563 C 236.758 299.191,237.566 299.869,237.733 300.069 C 238.177 300.604,239.241 299.526,240.248 297.522 C 240.689 296.644,241.528 295.134,242.114 294.167 C 242.699 293.199,243.357 291.977,243.577 291.451 C 243.797 290.924,244.463 289.660,245.058 288.642 C 246.837 285.594,246.996 285.947,242.522 283.001 C 240.388 281.596,238.086 280.007,237.407 279.470 C 236.728 278.933,235.893 278.288,235.551 278.037 L 234.930 277.579 234.107 279.962 M266.473 280.432 C 265.714 284.263,264.408 287.658,262.755 290.101 C 262.229 290.877,261.728 292.012,261.728 292.426 C 261.728 293.292,273.460 297.034,274.090 296.369 C 275.109 295.291,276.356 289.485,276.702 284.203 L 276.857 281.836 274.910 281.509 C 273.839 281.329,271.578 280.694,269.886 280.097 C 268.194 279.501,266.796 279.012,266.781 279.012 C 266.766 279.012,266.627 279.651,266.473 280.432 M246.843 287.346 C 245.990 289.062,243.187 294.177,242.008 296.169 C 241.447 297.117,240.988 297.992,240.988 298.112 C 240.988 298.232,240.578 299.005,240.077 299.829 C 239.493 300.791,239.272 301.362,239.460 301.425 C 239.621 301.479,240.558 302.046,241.543 302.686 C 243.926 304.235,251.134 308.134,252.299 308.504 C 252.870 308.685,252.685 308.978,256.173 302.384 C 257.123 300.587,258.263 298.566,258.705 297.892 C 259.390 296.847,259.728 295.980,260.391 293.568 C 260.462 293.309,260.121 293.004,259.329 292.619 C 258.687 292.307,256.992 291.361,255.563 290.516 C 252.844 288.910,247.805 286.173,247.566 286.173 C 247.489 286.173,247.164 286.701,246.843 287.346 M260.799 295.370 C 260.495 296.355,259.885 297.712,259.444 298.386 C 259.003 299.060,257.845 301.116,256.871 302.954 C 255.897 304.792,254.757 306.933,254.338 307.712 L 253.577 309.128 254.381 309.453 C 254.823 309.631,255.630 309.906,256.173 310.062 C 256.716 310.218,257.994 310.586,259.012 310.879 C 260.031 311.173,262.050 311.664,263.499 311.972 L 266.133 312.531 266.753 311.142 C 267.094 310.378,267.450 309.420,267.543 309.012 C 267.777 307.992,270.380 302.857,272.159 299.906 C 273.821 297.149,273.849 297.252,271.307 296.798 C 269.649 296.502,265.596 295.220,262.769 294.098 C 262.051 293.813,261.438 293.580,261.408 293.580 C 261.377 293.580,261.103 294.386,260.799 295.370 M234.399 298.860 C 234.908 300.186,235.580 303.578,235.448 304.153 L 235.296 304.815 235.797 304.198 C 237.816 301.710,237.815 301.231,235.787 299.637 C 234.847 298.899,234.296 298.590,234.399 298.860 M237.998 302.904 C 237.692 303.412,237.132 304.228,236.753 304.718 L 236.064 305.608 236.450 307.927 C 236.663 309.203,236.893 311.478,236.962 312.984 C 237.048 314.857,237.180 315.720,237.380 315.720 C 237.541 315.720,238.310 316.128,239.088 316.626 C 240.964 317.825,240.713 317.877,244.198 315.576 C 244.537 315.352,245.315 314.958,245.926 314.700 C 247.577 314.004,252.455 309.872,252.053 309.509 C 252.010 309.471,250.698 308.776,249.136 307.966 C 244.788 305.710,242.965 304.694,241.481 303.698 C 240.735 303.197,239.771 302.606,239.339 302.384 L 238.555 301.981 237.998 302.904 M251.349 311.570 C 249.529 313.488,247.829 314.834,246.753 315.209 C 245.088 315.789,241.421 318.319,241.771 318.645 C 242.108 318.960,243.796 320.098,245.706 321.299 C 246.302 321.674,247.235 322.300,247.778 322.689 C 248.321 323.079,249.685 323.864,250.808 324.435 L 252.851 325.471 254.265 324.263 C 255.043 323.599,256.790 322.195,258.148 321.144 C 263.736 316.820,266.564 313.880,265.667 313.326 C 265.533 313.243,264.675 313.036,263.761 312.866 C 261.778 312.496,258.259 311.586,255.146 310.638 L 252.886 309.949 251.349 311.570 M237.037 317.629 C 237.037 318.870,237.147 318.936,238.443 318.468 C 239.458 318.101,239.401 317.889,238.077 317.107 L 237.037 316.493 237.037 317.629 M262.564 318.786 C 261.357 319.893,259.537 321.413,258.519 322.163 C 256.121 323.931,254.074 325.662,254.074 325.923 C 254.074 326.037,255.566 326.628,257.389 327.238 L 260.703 328.346 261.257 326.951 C 261.562 326.183,262.169 324.833,262.607 323.949 C 263.411 322.326,265.087 317.104,264.873 316.890 C 264.810 316.826,263.770 317.679,262.564 318.786 M238.457 319.299 C 236.854 320.006,237.009 321.678,239.283 328.168 C 240.618 331.980,241.024 332.486,242.346 331.990 C 242.889 331.786,243.778 331.507,244.321 331.369 C 245.205 331.145,246.507 330.318,250.802 327.257 C 252.422 326.103,252.461 326.227,250.119 325.109 C 249.035 324.592,247.625 323.769,246.984 323.280 C 246.344 322.792,245.149 322.003,244.330 321.527 C 243.510 321.052,242.297 320.236,241.634 319.714 C 240.249 318.623,240.048 318.597,238.457 319.299 M252.217 327.376 C 250.853 328.690,245.173 332.345,244.485 332.352 C 244.123 332.356,243.403 332.550,242.885 332.784 L 241.943 333.210 242.857 334.277 C 245.851 337.769,250.069 339.316,252.394 337.776 C 255.757 335.549,261.073 329.377,259.934 329.022 C 259.766 328.970,258.170 328.419,256.386 327.797 C 252.544 326.458,253.110 326.516,252.217 327.376 " stroke="none" fill="#fbfbfb" fill-rule="evenodd"></path><path id="path1" d="M260.000 237.653 C 256.665 238.160,251.016 239.496,249.012 240.252 C 248.333 240.508,247.004 240.954,246.059 241.243 C 245.114 241.532,243.892 242.025,243.343 242.338 C 242.795 242.651,241.346 243.320,240.123 243.826 C 235.930 245.561,232.468 247.237,231.235 248.129 C 230.556 248.620,229.556 249.310,229.012 249.661 C 228.469 250.013,227.566 250.677,227.006 251.138 C 226.446 251.598,224.985 252.675,223.761 253.530 C 219.543 256.474,212.247 263.699,210.617 266.545 C 209.900 267.797,208.642 271.709,208.642 272.688 C 208.642 273.112,208.170 273.466,206.358 274.405 C 201.168 277.092,199.506 278.329,199.506 279.503 C 199.506 279.776,199.395 280.000,199.259 280.000 C 199.123 280.000,199.008 280.139,199.003 280.309 C 198.998 280.478,192.081 284.579,183.633 289.420 C 168.884 297.873,155.513 305.551,115.591 328.496 C 95.350 340.130,96.543 339.478,96.543 338.895 C 96.543 338.665,96.404 338.525,96.235 338.582 C 95.222 338.926,96.993 343.327,98.652 344.592 L 99.477 345.222 100.171 344.725 C 100.552 344.452,112.531 337.460,126.790 329.189 C 148.263 316.732,180.236 298.170,198.025 287.832 C 200.130 286.609,202.036 285.449,202.261 285.255 C 202.617 284.949,202.770 284.953,203.422 285.291 C 204.871 286.040,205.943 285.546,210.013 282.254 L 212.094 280.570 214.105 280.651 C 216.320 280.740,217.122 281.181,220.123 283.959 C 220.802 284.587,221.627 285.283,221.955 285.504 C 222.909 286.148,224.735 287.961,225.200 288.726 C 225.435 289.112,226.176 290.001,226.848 290.701 C 228.161 292.071,230.801 295.294,232.496 297.595 C 233.597 299.090,233.741 299.450,234.464 302.531 C 234.896 304.369,235.179 304.823,235.451 304.113 C 235.573 303.795,234.615 299.652,234.189 298.654 C 234.057 298.346,234.542 298.613,235.534 299.395 C 236.387 300.067,237.293 300.737,237.549 300.884 C 238.060 301.178,236.438 304.062,235.248 304.977 C 234.842 305.289,234.781 305.464,234.989 305.717 C 235.139 305.900,235.333 306.605,235.420 307.284 C 235.506 307.963,235.678 309.185,235.801 310.000 C 236.380 313.833,236.356 319.186,235.759 319.342 L 235.205 319.487 235.729 320.052 C 236.069 320.419,236.489 321.613,236.927 323.457 C 238.682 330.856,240.931 334.737,245.138 337.626 C 249.416 340.565,252.094 340.157,256.433 335.904 C 257.391 334.966,258.613 333.795,259.149 333.304 C 259.857 332.655,260.489 331.608,261.460 329.477 C 262.195 327.863,263.214 325.654,263.725 324.568 C 264.237 323.481,265.147 320.894,265.748 318.817 C 266.557 316.022,267.011 314.864,267.494 314.359 C 268.224 313.598,268.338 313.086,267.778 313.086 C 267.289 313.086,267.311 312.763,267.874 311.657 C 268.131 311.153,268.505 310.185,268.707 309.506 C 269.078 308.257,271.929 302.523,272.793 301.288 C 273.537 300.227,275.719 296.053,276.276 294.630 C 278.020 290.169,278.934 270.328,277.660 264.568 C 277.450 263.617,277.114 261.173,276.915 259.136 C 276.715 257.099,276.393 254.543,276.200 253.457 C 276.007 252.370,275.717 250.037,275.557 248.272 C 275.250 244.895,274.442 241.853,273.467 240.407 C 271.983 238.205,265.324 236.843,260.000 237.653 M268.272 238.913 C 275.081 240.270,275.280 245.776,268.794 253.377 C 264.701 258.174,254.474 266.402,251.210 267.524 C 250.740 267.686,250.225 267.948,250.066 268.107 C 249.908 268.265,249.678 268.395,249.557 268.395 C 249.435 268.395,249.018 268.621,248.631 268.897 C 248.243 269.173,247.448 269.555,246.864 269.746 C 244.484 270.524,242.986 271.087,242.194 271.500 C 240.337 272.469,233.729 274.568,232.534 274.568 C 232.294 274.568,232.099 274.666,232.099 274.786 C 232.099 275.147,229.658 276.017,227.160 276.546 C 225.870 276.820,224.370 277.201,223.827 277.393 C 223.284 277.584,221.324 278.138,219.472 278.622 L 216.105 279.503 214.287 278.705 C 211.272 277.382,210.505 276.912,210.320 276.277 C 210.225 275.948,209.972 275.095,209.759 274.382 C 209.415 273.230,209.412 272.913,209.730 271.541 C 210.655 267.554,211.548 266.097,215.598 261.969 C 220.368 257.109,220.882 256.677,227.780 251.728 C 229.105 250.778,230.814 249.542,231.576 248.982 C 232.339 248.423,233.210 247.888,233.512 247.795 C 233.814 247.702,235.425 246.980,237.092 246.190 C 238.759 245.401,240.401 244.672,240.741 244.569 C 241.080 244.467,242.204 243.964,243.239 243.451 C 244.273 242.938,245.940 242.273,246.942 241.972 C 247.945 241.671,249.136 241.268,249.589 241.077 C 250.725 240.596,257.449 239.021,260.000 238.637 C 262.354 238.283,265.664 238.394,268.272 238.913 M262.176 242.726 C 261.998 242.820,260.741 242.966,259.383 243.050 C 256.604 243.223,251.309 244.343,248.889 245.270 C 245.224 246.674,243.964 247.218,241.852 248.311 C 240.630 248.943,238.261 250.158,236.587 251.011 C 234.914 251.863,233.399 252.682,233.221 252.830 C 232.980 253.030,232.860 253.003,232.753 252.722 C 232.516 252.105,232.117 252.291,231.670 253.227 C 231.342 253.915,230.733 254.411,228.897 255.483 C 227.602 256.240,225.810 257.537,224.913 258.367 C 224.017 259.197,222.598 260.470,221.759 261.195 C 219.990 262.727,216.062 267.542,215.631 268.708 C 214.262 272.415,218.505 274.524,225.185 273.458 C 226.611 273.230,227.944 273.019,228.148 272.988 C 228.352 272.958,228.777 272.792,229.093 272.620 C 229.410 272.448,230.876 271.925,232.353 271.457 C 233.830 270.990,235.793 270.264,236.717 269.845 C 237.640 269.425,239.228 268.773,240.247 268.396 C 246.246 266.174,253.826 261.619,259.421 256.872 C 260.274 256.148,261.146 255.556,261.358 255.556 C 261.570 255.556,261.813 255.361,261.897 255.123 C 261.981 254.886,262.962 253.747,264.077 252.593 C 267.725 248.814,268.784 244.357,266.281 243.311 C 265.223 242.869,262.612 242.497,262.176 242.726 M266.021 244.133 C 267.702 244.980,266.417 249.074,263.600 251.845 L 261.975 253.443 261.975 252.558 C 261.975 251.450,262.686 244.182,262.835 243.769 C 262.973 243.384,264.995 243.615,266.021 244.133 M261.455 248.152 C 261.222 250.598,261.066 252.903,261.108 253.275 C 261.231 254.380,261.030 254.376,259.429 253.240 C 258.589 252.645,257.179 251.798,256.296 251.358 C 255.414 250.919,253.858 249.815,252.840 248.905 C 251.821 247.995,250.626 246.987,250.183 246.664 C 249.235 245.972,249.319 245.853,251.111 245.361 C 254.544 244.419,257.763 243.897,261.124 243.739 L 261.878 243.704 261.455 248.152 M274.703 250.247 C 274.789 251.469,275.072 253.759,275.331 255.336 C 275.590 256.913,275.802 258.816,275.802 259.565 C 275.802 260.315,276.024 262.191,276.294 263.736 C 277.288 269.419,277.328 269.403,271.279 265.724 C 268.306 263.916,268.315 263.927,267.924 261.852 C 267.450 259.340,266.822 257.531,266.425 257.531 C 266.224 257.531,267.012 256.559,268.175 255.370 C 271.314 252.165,273.992 248.231,274.099 246.667 C 274.157 245.818,274.557 248.188,274.703 250.247 M249.468 247.210 C 249.896 247.509,251.080 248.517,252.099 249.450 C 253.232 250.488,254.765 251.571,256.049 252.239 C 257.204 252.840,258.615 253.704,259.185 254.159 L 260.221 254.986 259.308 255.840 C 257.613 257.426,255.304 259.112,249.877 262.730 C 246.691 264.854,245.161 265.285,245.552 263.951 C 245.611 263.747,245.779 261.747,245.924 259.506 C 246.159 255.874,246.383 254.095,247.154 249.753 C 247.662 246.893,248.187 246.316,249.468 247.210 M247.160 247.146 C 247.160 247.274,247.065 247.437,246.949 247.509 C 246.747 247.634,246.538 248.559,245.917 252.080 C 245.528 254.287,244.950 259.848,244.940 261.481 C 244.922 264.435,245.003 264.443,241.400 261.128 C 240.290 260.107,238.498 258.686,237.417 257.969 C 235.546 256.729,233.215 254.306,233.389 253.782 C 233.434 253.649,233.967 253.279,234.575 252.960 C 235.182 252.641,237.488 251.423,239.698 250.254 C 243.058 248.477,246.159 247.066,246.975 246.942 C 247.077 246.926,247.160 247.018,247.160 247.146 M232.840 254.554 C 232.840 255.072,235.698 257.826,237.361 258.910 C 238.337 259.546,240.025 260.913,241.111 261.947 C 242.198 262.981,243.527 264.169,244.064 264.587 L 245.042 265.348 243.200 266.228 C 242.187 266.713,240.802 267.295,240.123 267.523 C 239.444 267.751,238.000 268.331,236.914 268.812 C 235.358 269.502,229.377 271.588,228.914 271.602 C 228.210 271.624,230.984 256.172,231.971 254.576 C 232.168 254.257,232.840 254.240,232.840 254.554 M230.864 255.545 C 230.864 255.675,230.478 257.287,230.007 259.127 C 229.153 262.457,228.902 263.950,228.367 268.889 C 228.212 270.315,228.048 271.524,228.002 271.575 C 227.797 271.808,222.506 266.845,220.560 264.595 L 220.009 263.957 220.801 263.055 C 223.397 260.099,230.864 254.526,230.864 255.545 M266.506 259.383 C 267.066 261.139,267.299 262.805,266.968 262.687 C 266.821 262.635,265.813 262.148,264.728 261.605 L 262.754 260.617 264.278 259.221 C 265.977 257.664,265.957 257.663,266.506 259.383 M264.027 262.020 C 266.463 263.249,267.655 264.194,267.640 264.884 C 267.587 267.462,266.609 276.668,266.319 277.322 C 265.949 278.157,259.665 274.705,254.629 270.900 L 251.622 268.629 256.243 265.525 C 258.785 263.818,261.139 262.154,261.475 261.829 C 262.137 261.186,262.417 261.207,264.027 262.020 M226.659 271.430 C 227.811 272.294,227.609 272.402,224.296 272.688 C 219.808 273.075,216.543 272.236,216.543 270.695 C 216.543 270.516,216.388 270.370,216.199 270.370 C 215.491 270.370,216.244 268.656,217.865 266.580 L 219.491 264.499 222.647 267.643 C 224.382 269.373,226.188 271.077,226.659 271.430 M270.641 266.175 C 272.689 267.396,275.069 268.620,276.322 269.095 L 276.966 269.340 277.093 273.339 C 277.213 277.100,277.030 280.583,276.695 280.918 C 276.499 281.115,273.232 280.531,271.975 280.075 C 267.086 278.299,266.799 278.152,267.066 277.553 C 267.360 276.893,268.311 268.309,268.375 265.741 C 268.400 264.751,268.181 264.709,270.641 266.175 M250.370 269.663 C 250.370 269.953,250.265 270.869,250.137 271.700 C 250.009 272.530,249.781 274.099,249.630 275.185 C 249.349 277.211,247.987 282.359,247.294 284.013 L 246.906 284.940 245.861 284.280 C 241.286 281.395,235.719 277.311,235.305 276.536 C 235.161 276.268,234.895 276.049,234.713 276.049 C 233.500 276.049,233.920 275.349,235.368 274.955 C 237.171 274.464,239.571 273.605,242.346 272.455 C 243.432 272.004,245.099 271.351,246.049 271.004 C 247.000 270.656,248.278 270.100,248.889 269.768 C 250.271 269.019,250.370 269.011,250.370 269.663 M259.457 275.108 C 260.992 276.031,263.075 277.169,264.087 277.637 C 265.398 278.243,265.924 278.615,265.918 278.935 C 265.896 280.299,264.176 285.735,263.199 287.531 C 261.401 290.836,260.988 291.675,260.988 292.017 C 260.988 292.702,260.560 292.509,255.432 289.511 C 253.531 288.400,251.059 287.009,249.938 286.419 C 247.610 285.195,247.670 285.373,248.624 282.527 C 249.889 278.754,250.393 276.492,250.863 272.469 C 251.021 271.111,251.194 269.862,251.246 269.694 C 251.303 269.509,252.398 270.190,254.004 271.408 C 255.468 272.520,257.922 274.185,259.457 275.108 M208.475 274.668 C 208.548 274.858,208.553 275.224,208.486 275.480 C 208.414 275.757,208.571 276.132,208.874 276.406 C 209.154 276.659,209.383 277.001,209.383 277.165 C 209.383 277.619,210.361 278.767,211.163 279.255 L 211.876 279.689 209.880 281.340 C 208.782 282.249,207.181 283.432,206.323 283.970 L 204.763 284.949 203.355 284.410 C 199.085 282.776,198.906 279.451,202.963 277.132 C 207.816 274.358,208.277 274.152,208.475 274.668 M233.577 276.228 C 233.851 276.462,234.074 276.851,234.074 277.093 C 234.074 277.769,232.131 282.947,231.408 284.198 C 231.054 284.809,230.526 285.753,230.234 286.296 C 229.942 286.840,229.259 287.983,228.716 288.838 L 227.731 290.391 226.890 289.429 C 226.428 288.900,225.743 288.067,225.368 287.578 C 224.717 286.727,222.463 284.716,218.761 281.684 L 217.049 280.281 217.845 280.028 C 218.283 279.889,219.753 279.497,221.111 279.158 C 222.469 278.818,224.036 278.380,224.594 278.183 C 225.152 277.986,226.502 277.642,227.596 277.419 C 228.689 277.196,230.233 276.751,231.027 276.430 C 232.805 275.710,232.959 275.698,233.577 276.228 M237.407 279.383 C 239.482 280.966,245.883 285.294,246.411 285.470 C 246.634 285.545,246.551 285.912,246.111 286.799 C 244.939 289.160,241.991 294.593,241.522 295.256 C 241.261 295.625,240.640 296.787,240.142 297.840 C 239.624 298.934,239.083 299.753,238.878 299.753 C 238.680 299.753,238.519 299.920,238.519 300.123 C 238.519 300.889,236.173 299.139,232.752 295.823 C 228.184 291.396,227.896 290.634,229.891 288.272 C 230.120 288.000,230.600 287.246,230.956 286.597 C 231.313 285.947,231.759 285.169,231.947 284.868 C 232.435 284.088,233.446 281.674,234.215 279.449 C 234.642 278.215,234.974 277.599,235.154 277.707 C 235.307 277.799,236.321 278.553,237.407 279.383 M213.580 279.402 L 214.198 279.774 213.580 279.612 C 213.241 279.523,212.857 279.352,212.728 279.232 C 212.351 278.879,212.892 278.987,213.580 279.402 M269.747 279.998 C 271.208 280.540,273.387 281.172,274.588 281.402 C 277.217 281.906,277.111 281.683,276.648 285.741 C 275.869 292.575,274.820 296.543,273.793 296.543 C 272.449 296.543,265.360 294.464,262.901 293.349 C 261.526 292.725,261.423 292.257,262.323 290.741 C 264.241 287.510,265.150 285.384,265.938 282.284 C 266.396 280.485,266.842 279.012,266.931 279.012 C 267.019 279.012,268.286 279.456,269.747 279.998 M199.259 281.717 C 199.259 281.847,199.509 282.217,199.815 282.539 C 200.522 283.285,201.728 284.720,201.728 284.815 C 201.728 284.855,200.145 285.806,198.210 286.928 C 190.724 291.267,118.145 333.455,109.148 338.696 C 102.458 342.593,99.504 344.189,99.145 344.098 C 98.642 343.972,96.790 341.095,96.790 340.441 C 96.790 340.002,89.693 344.125,151.605 308.588 C 164.981 300.910,181.037 291.681,187.284 288.078 C 198.299 281.726,199.259 281.216,199.259 281.717 M253.725 289.411 C 256.158 290.801,258.676 292.198,259.321 292.513 C 259.966 292.829,260.494 293.232,260.494 293.409 C 260.494 294.203,259.364 297.018,258.628 298.059 C 258.183 298.688,257.513 299.855,257.141 300.651 C 256.768 301.447,255.640 303.618,254.635 305.475 L 252.807 308.850 251.897 308.427 C 247.964 306.596,239.259 301.625,239.259 301.210 C 239.259 301.101,239.648 300.368,240.123 299.580 C 240.598 298.793,240.987 298.058,240.987 297.947 C 240.987 297.836,241.560 296.780,242.258 295.601 C 243.508 293.493,245.322 290.139,246.722 287.347 L 247.434 285.929 248.368 286.406 C 248.882 286.668,251.292 288.020,253.725 289.411 M263.156 294.170 C 265.162 295.007,269.735 296.443,271.481 296.783 C 274.009 297.275,273.896 297.183,273.245 298.225 C 270.961 301.878,267.783 308.071,267.520 309.383 C 267.345 310.254,266.269 312.593,266.043 312.593 C 264.965 312.593,254.165 309.674,253.614 309.233 C 253.492 309.136,254.542 306.945,255.094 306.147 C 255.338 305.794,256.226 304.127,257.067 302.444 C 257.909 300.760,258.942 298.928,259.364 298.373 C 259.787 297.818,260.393 296.512,260.712 295.472 C 261.371 293.326,261.267 293.381,263.156 294.170 M240.517 303.003 C 242.728 304.440,246.608 306.632,249.588 308.127 C 252.539 309.608,252.527 309.399,249.810 312.030 C 248.519 313.280,247.424 314.073,246.145 314.685 C 245.142 315.164,243.649 315.980,242.828 316.498 C 240.822 317.763,240.617 317.821,239.954 317.312 C 239.640 317.071,238.883 316.605,238.272 316.276 C 236.773 315.471,236.745 315.417,236.880 313.580 C 236.944 312.698,236.898 311.444,236.776 310.794 C 236.655 310.145,236.437 308.666,236.293 307.508 L 236.032 305.402 236.741 304.491 C 237.131 303.990,237.659 303.219,237.914 302.778 C 238.504 301.757,238.614 301.766,240.517 303.003 M255.275 310.597 C 259.123 311.761,261.213 312.300,263.666 312.759 L 265.974 313.191 265.836 314.065 C 265.742 314.664,265.445 315.132,264.893 315.556 C 264.450 315.895,263.216 316.951,262.151 317.901 C 261.086 318.852,259.305 320.338,258.194 321.203 C 257.082 322.068,255.470 323.373,254.610 324.104 C 253.750 324.834,252.942 325.432,252.814 325.432 C 252.321 325.432,248.695 323.459,247.284 322.423 C 246.469 321.824,245.191 320.985,244.444 320.557 C 242.794 319.612,241.259 318.286,241.628 318.126 C 241.777 318.062,242.666 317.505,243.604 316.889 C 245.192 315.845,245.735 315.559,247.449 314.864 C 247.812 314.717,249.145 313.552,250.412 312.274 C 251.679 310.997,252.757 309.935,252.806 309.914 C 252.855 309.894,253.967 310.201,255.275 310.597 M239.505 318.002 C 239.504 318.150,237.554 319.012,237.220 319.012 C 237.119 319.012,237.037 318.450,237.037 317.762 L 237.037 316.512 238.272 317.184 C 238.951 317.554,239.506 317.922,239.505 318.002 M264.311 319.578 C 263.828 321.155,262.883 323.612,262.211 325.038 C 261.538 326.464,260.988 327.741,260.988 327.875 C 260.988 328.426,260.414 328.334,257.412 327.300 C 253.384 325.913,253.458 326.046,255.734 324.246 C 256.790 323.411,258.396 322.142,259.303 321.426 C 260.210 320.709,261.859 319.310,262.967 318.315 C 265.429 316.107,265.385 316.066,264.311 319.578 M243.333 320.733 C 244.556 321.545,246.111 322.613,246.790 323.106 C 247.469 323.599,248.914 324.448,250.000 324.993 C 251.086 325.538,252.019 326.023,252.072 326.072 C 252.265 326.249,251.490 326.963,250.142 327.849 C 249.385 328.347,247.955 329.332,246.963 330.038 C 245.788 330.876,244.732 331.414,243.926 331.587 C 243.247 331.733,242.368 332.019,241.974 332.223 C 241.259 332.593,241.254 332.590,240.644 331.544 C 238.669 328.158,236.511 319.506,237.642 319.506 C 237.823 319.506,238.455 319.289,239.047 319.024 C 240.001 318.596,240.180 318.582,240.617 318.899 C 240.889 319.096,242.111 319.922,243.333 320.733 M256.586 327.804 C 258.396 328.429,259.956 329.015,260.054 329.105 C 260.836 329.827,256.311 335.079,252.636 337.716 C 250.684 339.117,248.204 338.672,245.032 336.354 C 241.747 333.953,241.358 332.828,243.685 332.459 C 245.181 332.221,251.458 328.404,252.584 327.047 C 253.005 326.541,252.842 326.510,256.586 327.804 " stroke="none" fill="#0d0d0d" fill-rule="evenodd"></path><path id="path2" d="M260.247 238.645 C 257.670 239.026,250.487 240.661,249.820 241.018 C 249.552 241.161,248.395 241.551,247.249 241.883 C 246.103 242.215,244.531 242.809,243.755 243.202 C 242.980 243.596,241.068 244.470,239.506 245.145 C 234.443 247.332,232.508 248.338,230.316 249.924 C 229.131 250.780,227.076 252.253,225.748 253.195 C 222.484 255.512,220.045 257.464,219.682 258.050 C 219.518 258.316,218.954 258.831,218.431 259.195 C 213.328 262.740,208.613 270.877,209.740 274.196 C 209.951 274.817,210.123 275.525,210.123 275.768 C 210.123 276.475,211.079 277.187,213.620 278.375 L 215.994 279.484 220.157 278.362 C 222.447 277.744,225.471 276.966,226.876 276.632 C 229.739 275.951,232.099 275.132,232.099 274.819 C 232.099 274.705,232.571 274.537,233.148 274.446 C 235.180 274.127,240.964 272.112,245.556 270.125 C 245.827 270.007,246.489 269.776,247.027 269.611 C 247.565 269.445,248.588 268.938,249.299 268.482 C 250.011 268.027,250.759 267.654,250.960 267.654 C 253.291 267.654,266.718 256.377,270.528 251.220 C 273.218 247.578,274.189 243.076,272.712 241.098 C 271.226 239.107,265.172 237.916,260.247 238.645 M265.585 243.106 C 268.890 244.010,268.205 248.317,264.077 252.593 C 262.962 253.747,261.981 254.886,261.897 255.123 C 261.813 255.361,261.532 255.556,261.273 255.556 C 261.013 255.556,260.653 255.735,260.471 255.953 C 257.989 258.944,245.200 266.857,240.370 268.390 C 239.827 268.562,238.272 269.180,236.914 269.763 C 235.556 270.345,233.305 271.174,231.911 271.604 C 230.518 272.034,229.240 272.521,229.072 272.686 C 228.903 272.851,228.543 272.999,228.272 273.014 C 228.000 273.029,226.667 273.227,225.309 273.454 C 218.508 274.590,214.063 272.345,215.641 268.572 C 216.154 267.346,220.258 262.462,222.249 260.708 C 223.230 259.843,224.654 258.578,225.412 257.896 C 226.170 257.214,227.779 256.103,228.987 255.427 C 230.673 254.484,231.262 254.015,231.515 253.412 C 231.913 252.463,232.260 252.214,232.688 252.570 C 233.007 252.834,236.723 251.080,241.418 248.449 C 242.401 247.898,243.886 247.212,244.718 246.924 C 245.549 246.636,246.634 246.196,247.127 245.945 C 249.584 244.697,257.155 242.966,260.187 242.959 C 261.103 242.957,262.009 242.856,262.201 242.734 C 262.602 242.481,263.768 242.609,265.585 243.106 M206.420 275.210 C 200.961 278.149,200.310 278.681,200.081 280.392 C 199.893 281.803,201.398 283.661,203.330 284.401 L 204.704 284.926 205.994 284.144 C 207.238 283.390,211.605 280.042,211.605 279.843 C 211.605 279.789,211.133 279.274,210.556 278.700 C 209.485 277.634,208.556 276.221,208.486 275.556 C 208.465 275.352,208.436 274.991,208.421 274.753 C 208.387 274.180,208.290 274.202,206.420 275.210 " stroke="none" fill="#f1735b" fill-rule="evenodd"></path><path id="path3" d="M264.263 237.461 C 264.638 237.518,265.194 237.516,265.497 237.458 C 265.801 237.399,265.494 237.353,264.815 237.355 C 264.136 237.356,263.887 237.404,264.263 237.461 M267.654 255.926 C 267.055 256.537,266.619 257.037,266.687 257.037 C 266.755 257.037,267.301 256.537,267.901 255.926 C 268.501 255.315,268.936 254.815,268.868 254.815 C 268.800 254.815,268.254 255.315,267.654 255.926 M276.857 258.272 C 276.857 258.883,276.906 259.133,276.964 258.827 C 277.023 258.522,277.023 258.022,276.964 257.716 C 276.906 257.410,276.857 257.660,276.857 258.272 M278.353 276.420 C 278.354 277.370,278.398 277.729,278.452 277.217 C 278.505 276.704,278.504 275.927,278.450 275.488 C 278.395 275.050,278.352 275.469,278.353 276.420 M277.108 276.667 C 277.110 277.346,277.157 277.594,277.214 277.219 C 277.271 276.844,277.269 276.288,277.211 275.984 C 277.152 275.681,277.106 275.988,277.108 276.667 M278.109 281.605 C 278.110 282.691,278.154 283.105,278.206 282.524 C 278.258 281.944,278.257 281.055,278.204 280.549 C 278.151 280.043,278.108 280.519,278.109 281.605 M234.834 304.892 C 234.846 305.151,234.901 305.192,234.979 304.998 C 235.048 304.828,235.198 304.746,235.313 304.817 C 235.427 304.888,235.577 304.856,235.645 304.747 C 235.713 304.637,235.554 304.531,235.292 304.511 C 234.988 304.488,234.822 304.627,234.834 304.892 M236.847 314.568 C 236.847 315.043,236.898 315.238,236.960 315.000 C 237.022 314.762,237.022 314.373,236.960 314.136 C 236.898 313.898,236.847 314.093,236.847 314.568 M236.128 317.778 C 236.128 318.660,236.173 319.022,236.228 318.580 C 236.283 318.139,236.283 317.417,236.228 316.975 C 236.173 316.534,236.128 316.895,236.128 317.778 M256.157 334.383 L 255.432 335.185 256.235 334.460 C 256.983 333.784,257.151 333.580,256.960 333.580 C 256.917 333.580,256.556 333.941,256.157 334.383 M257.145 335.123 L 256.420 335.926 257.222 335.201 C 257.970 334.525,258.138 334.321,257.947 334.321 C 257.905 334.321,257.544 334.682,257.145 335.123 " stroke="none" fill="#9a9a9a" fill-rule="evenodd"></path><path id="path4" d="M219.493 256.728 L 218.642 257.654 219.568 256.803 C 220.430 256.011,220.607 255.802,220.419 255.802 C 220.378 255.802,219.961 256.219,219.493 256.728 M278.087 267.531 C 278.090 268.074,278.140 268.267,278.199 267.960 C 278.258 267.653,278.256 267.209,278.194 266.972 C 278.133 266.736,278.084 266.988,278.087 267.531 M195.283 283.582 C 193.328 284.711,176.395 294.434,157.654 305.189 C 138.914 315.944,117.552 328.202,110.185 332.431 C 101.759 337.266,96.791 340.257,96.792 340.491 C 96.796 341.015,98.684 343.935,99.130 344.106 C 99.345 344.188,102.392 342.560,106.477 340.180 C 112.717 336.545,175.602 299.993,191.235 290.915 C 194.630 288.944,198.368 286.762,199.541 286.066 L 201.674 284.802 201.184 284.191 C 200.915 283.855,200.277 283.119,199.766 282.555 L 198.838 281.530 195.283 283.582 " stroke="none" fill="#cccccc" fill-rule="evenodd"></path></g></svg>