<svg id="svg" version="1.1" xmlns="http://www.w3.org/2000/svg" xmlns:xlink="http://www.w3.org/1999/xlink" width="400" height="533.3333333333334" viewBox="0, 0, 400,533.3333333333334"><g id="svgg"><path id="path1" d="M141.633 187.963 C 141.709 188.846,141.021 199.745,140.023 213.457 C 137.475 248.499,134.750 286.325,133.346 306.173 C 132.668 315.747,132.060 324.108,131.994 324.753 C 131.839 326.282,129.679 326.575,153.646 321.821 C 165.029 319.564,174.392 317.766,174.452 317.827 C 174.811 318.186,179.403 336.212,179.202 336.471 C 179.074 336.634,179.035 336.875,179.116 337.004 C 179.352 337.388,180.011 337.167,180.325 336.599 C 180.486 336.309,187.490 330.132,195.890 322.872 L 211.162 309.672 213.420 309.534 C 214.663 309.458,223.456 309.222,232.961 309.008 C 248.987 308.649,252.020 308.469,250.171 307.985 C 249.842 307.899,245.553 303.280,239.805 296.823 C 234.412 290.765,216.556 270.695,200.123 252.224 C 183.691 233.753,164.093 211.728,156.571 203.279 C 149.049 194.831,142.689 187.582,142.439 187.170 C 141.729 186.003,141.485 186.244,141.633 187.963 M148.359 203.838 C 151.474 211.437,162.107 237.377,171.988 261.481 C 193.702 314.455,193.153 313.103,193.014 313.241 C 192.953 313.302,182.027 315.513,168.735 318.153 C 136.075 324.641,132.839 325.267,132.697 325.125 C 132.630 325.058,133.693 309.572,135.059 290.711 C 136.425 271.851,138.203 247.309,139.010 236.173 C 139.816 225.037,140.879 210.204,141.371 203.210 C 142.230 190.990,142.350 189.675,142.588 189.913 C 142.647 189.972,145.244 196.238,148.359 203.838 M182.621 233.457 C 202.296 255.593,225.210 281.367,233.541 290.733 C 246.044 304.790,248.608 307.792,248.233 307.933 C 247.683 308.140,212.406 308.955,212.104 308.768 C 211.987 308.696,211.626 308.166,211.301 307.590 C 210.577 306.308,145.823 193.062,145.121 191.852 C 144.200 190.264,146.220 192.504,182.621 233.457 M164.761 227.407 C 201.442 291.534,210.866 307.976,211.107 308.267 C 211.272 308.465,211.062 308.823,210.426 309.427 C 208.980 310.799,181.486 334.568,181.344 334.568 C 180.988 334.568,193.033 314.530,193.757 313.918 C 194.260 313.493,194.313 313.350,194.031 313.177 C 193.839 313.059,186.475 295.352,177.667 273.827 C 168.859 252.302,157.725 225.099,152.925 213.376 C 148.125 201.652,144.198 191.991,144.198 191.907 C 144.198 191.496,145.983 194.579,164.761 227.407 M192.519 314.259 C 191.580 315.949,180.336 334.780,180.132 335.006 C 179.913 335.248,179.304 333.284,177.493 326.487 C 175.980 320.810,175.236 317.617,175.409 317.551 C 175.632 317.466,191.783 314.192,192.422 314.102 C 192.532 314.087,192.575 314.157,192.519 314.259 " stroke="none" fill="#0f0f0f" fill-rule="evenodd"></path><path id="path2" d="M237.099 308.318 C 237.336 308.380,237.725 308.380,237.963 308.318 C 238.201 308.256,238.006 308.205,237.531 308.205 C 237.056 308.205,236.861 308.256,237.099 308.318 M226.728 308.565 C 226.966 308.627,227.355 308.627,227.593 308.565 C 227.830 308.503,227.636 308.452,227.160 308.452 C 226.685 308.452,226.491 308.503,226.728 308.565 M216.484 308.817 C 216.791 308.876,217.236 308.873,217.472 308.812 C 217.708 308.750,217.457 308.702,216.914 308.704 C 216.370 308.707,216.177 308.758,216.484 308.817 M245.123 308.816 C 245.429 308.875,245.929 308.875,246.235 308.816 C 246.540 308.757,246.290 308.709,245.679 308.709 C 245.068 308.709,244.818 308.757,245.123 308.816 M234.630 309.066 C 235.003 309.122,235.614 309.122,235.988 309.066 C 236.361 309.009,236.056 308.963,235.309 308.963 C 234.562 308.963,234.256 309.009,234.630 309.066 M224.510 309.313 C 224.885 309.370,225.440 309.368,225.744 309.310 C 226.048 309.251,225.741 309.205,225.062 309.206 C 224.383 309.208,224.134 309.256,224.510 309.313 M213.889 309.560 C 214.262 309.616,214.873 309.616,215.247 309.560 C 215.620 309.503,215.315 309.457,214.568 309.457 C 213.821 309.457,213.515 309.503,213.889 309.560 M183.951 315.789 C 179.401 316.701,175.558 317.494,175.409 317.551 C 175.236 317.617,175.980 320.810,177.493 326.487 C 179.304 333.284,179.913 335.248,180.132 335.006 C 180.336 334.780,191.580 315.949,192.519 314.259 C 192.649 314.025,193.533 313.867,183.951 315.789 " stroke="none" fill="#7c7c7c" fill-rule="evenodd"></path><path id="path3" d="M144.691 192.921 C 144.691 193.021,151.481 209.682,159.780 229.946 C 168.078 250.210,178.029 274.512,181.892 283.951 C 185.754 293.389,189.965 303.672,191.248 306.802 C 192.531 309.932,193.580 312.587,193.580 312.701 C 193.580 312.815,193.775 313.058,194.012 313.240 C 194.436 313.565,194.309 313.809,193.549 314.132 C 193.406 314.192,182.454 332.433,181.724 333.827 C 181.416 334.414,181.423 334.426,181.866 334.074 C 182.540 333.538,210.157 309.652,210.721 309.117 C 211.253 308.613,213.298 312.327,192.657 276.296 C 188.183 268.488,175.655 246.599,164.816 227.654 C 145.940 194.664,144.691 192.509,144.691 192.921 M245.741 308.071 C 245.978 308.134,246.367 308.134,246.605 308.071 C 246.843 308.009,246.648 307.959,246.173 307.959 C 245.698 307.959,245.503 308.009,245.741 308.071 M224.506 308.565 C 224.744 308.627,225.133 308.627,225.370 308.565 C 225.608 308.503,225.414 308.452,224.938 308.452 C 224.463 308.452,224.269 308.503,224.506 308.565 M214.136 308.812 C 214.373 308.874,214.762 308.874,215.000 308.812 C 215.238 308.750,215.043 308.699,214.568 308.699 C 214.093 308.699,213.898 308.750,214.136 308.812 M238.580 309.066 C 238.954 309.122,239.565 309.122,239.938 309.066 C 240.312 309.009,240.006 308.963,239.259 308.963 C 238.512 308.963,238.207 309.009,238.580 309.066 M228.210 309.313 C 228.583 309.369,229.194 309.369,229.568 309.313 C 229.941 309.256,229.636 309.210,228.889 309.210 C 228.142 309.210,227.836 309.256,228.210 309.313 M217.840 309.560 C 218.213 309.616,218.824 309.616,219.198 309.560 C 219.571 309.503,219.265 309.457,218.519 309.457 C 217.772 309.457,217.466 309.503,217.840 309.560 " stroke="none" fill="#cccccc" fill-rule="evenodd"></path><path id="path4" d="M248.336 308.817 C 248.643 308.876,249.088 308.873,249.324 308.812 C 249.560 308.750,249.309 308.702,248.765 308.704 C 248.222 308.707,248.029 308.758,248.336 308.817 M236.852 309.059 C 237.090 309.121,237.478 309.121,237.716 309.059 C 237.954 308.997,237.759 308.946,237.284 308.946 C 236.809 308.946,236.614 308.997,236.852 309.059 M226.481 309.306 C 226.719 309.368,227.108 309.368,227.346 309.306 C 227.583 309.244,227.389 309.193,226.914 309.193 C 226.438 309.193,226.244 309.244,226.481 309.306 M216.111 309.553 C 216.349 309.615,216.738 309.615,216.975 309.553 C 217.213 309.491,217.019 309.440,216.543 309.440 C 216.068 309.440,215.873 309.491,216.111 309.553 " stroke="none" fill="#a3a3a3" fill-rule="evenodd"></path></g></svg>
